<mxfile host="app.diagrams.net" modified="2023-11-21T16:22:13.768Z" agent="Mozilla/5.0 (Windows NT 10.0; Win64; x64; rv:109.0) Gecko/20100101 Firefox/119.0" version="22.1.3" etag="jnNUYh7zSdTYnpPygP89" type="device">
  <diagram id="Z-rtUqrJElwp_xVcgFR6" name="Page-1">
    <mxGraphModel dx="2847" dy="1156" grid="1" gridSize="10" guides="1" tooltips="1" connect="1" arrows="1" fold="1" page="1" pageScale="1" pageWidth="850" pageHeight="1100" background="#FFFFFF" math="0" shadow="0">
      <root>
        <mxCell id="0" />
        <mxCell id="2" value="Layer 0" parent="0" />
        <mxCell id="3" style="shape=rect;shadow=0;strokeWidth=1;fillColor=#e2e2e2;strokeColor=#000000;opacity=100.0;gliffyId=0;" parent="2" vertex="1">
          <mxGeometry x="440" y="185" width="160" height="150" as="geometry" />
        </mxCell>
        <mxCell id="4" value="&lt;div style=&#39;width: 157.0px;height:auto;word-break: break-word;&#39;&gt;&lt;div align=&quot;center&quot;&gt;&lt;span style=&quot;font-family:Arial;font-weight:bold;font-size:12px; line-height: normal;&quot;&gt;Fact :VictimsConflict&lt;span style=&quot;text-decoration:none; line-height: normal;&quot;&gt;&lt;br /&gt;&lt;/span&gt;&lt;/span&gt;&lt;/div&gt;&lt;/div&gt;" style="shape=rect;shadow=0;strokeWidth=1;fillColor=#e2e2e2;strokeColor=#000000;opacity=100.0;html=1;nl2Br=0;verticalAlign=top;align=center;spacingLeft=0.0;spacingRight=0;spacingTop=-5.0;spacingBottom=2;whiteSpace=wrap;gliffyId=1;" parent="3" vertex="1">
          <mxGeometry width="160" height="18" as="geometry" />
        </mxCell>
        <mxCell id="5" value="&lt;div style=&#39;width: 157.0px;height:auto;word-break: break-word;&#39;&gt;&lt;div align=&quot;center&quot;&gt;&lt;span style=&quot;font-family:Arial;font-size:12px; line-height: 0;&quot;&gt;&lt;span style=&quot; line-height: normal;&quot;&gt;Country_ID&lt;br /&gt;&lt;/span&gt;&lt;/span&gt;&lt;/div&gt;&lt;div align=&quot;center&quot;&gt;&lt;span style=&quot;font-family:Arial;font-size:12px; line-height: 0;&quot;&gt;&lt;span style=&quot; line-height: normal;&quot;&gt;Event_ID&lt;/span&gt;&lt;/span&gt;&lt;/div&gt;&lt;div align=&quot;center&quot;&gt;&lt;span style=&quot;font-family:Arial;font-size:12px; line-height: 0;&quot;&gt;&lt;span style=&quot; line-height: normal;&quot;&gt;Status_ID&lt;/span&gt;&lt;/span&gt;&lt;/div&gt;&lt;div align=&quot;center&quot;&gt;&lt;span style=&quot;text-decoration:none;font-family:Arial;font-size:12px; line-height: 0;&quot;&gt;&lt;span style=&quot;text-decoration:none; line-height: normal;&quot;&gt;&amp;nbsp;&lt;/span&gt;&lt;/span&gt;&lt;/div&gt;&lt;/div&gt;" style="shape=rect;shadow=0;strokeWidth=1;fillColor=#e2e2e2;strokeColor=#000000;opacity=100.0;html=1;nl2Br=0;verticalAlign=top;align=center;spacingLeft=0.0;spacingRight=0;spacingTop=-5.0;spacingBottom=2;whiteSpace=wrap;gliffyId=3;" parent="3" vertex="1">
          <mxGeometry y="18" width="160" height="132" as="geometry" />
        </mxCell>
        <mxCell id="6" value="&lt;div style=&#39;width: 153.0px;height:auto;word-break: break-word;&#39;&gt;&lt;div align=&quot;center&quot;&gt;&lt;span style=&quot;text-decoration:none;font-family:Arial;font-size:12px; line-height: 0;&quot;&gt;&lt;span style=&quot;text-decoration:none; line-height: normal;&quot;&gt;#NumberOfDeaths&lt;/span&gt;&lt;/span&gt;&lt;/div&gt;&lt;div align=&quot;center&quot;&gt;&lt;span style=&quot;text-decoration:none;font-family:Arial;font-size:12px; line-height: 0;&quot;&gt;&lt;span style=&quot;text-decoration:none; line-height: normal;&quot;&gt;#NumberOfPrisoners&amp;nbsp;&lt;/span&gt;&lt;/span&gt;&lt;/div&gt;&lt;/div&gt;" style="shape=rect;shadow=0;strokeWidth=1;fillColor=#d9d9d9;strokeColor=#000000;opacity=100.0;html=1;nl2Br=0;verticalAlign=middle;align=center;spacingLeft=2.0;spacingRight=0;whiteSpace=wrap;gliffyId=5;" parent="2" vertex="1">
          <mxGeometry x="440" y="285" width="160" height="50" as="geometry" />
        </mxCell>
        <mxCell id="7" style="shape=rect;shadow=0;strokeWidth=1;fillColor=#FFFFFF;strokeColor=#000000;opacity=100.0;gliffyId=20;" parent="2" vertex="1">
          <mxGeometry x="270" y="140" width="110" height="90" as="geometry" />
        </mxCell>
        <mxCell id="8" value="&lt;div style=&#39;width: 107.0px;height:auto;word-break: break-word;&#39;&gt;&lt;div align=&quot;center&quot;&gt;&lt;span style=&quot;text-decoration:none;font-family:Arial;font-weight:bold;font-size:12px; line-height: normal;&quot;&gt;Dim : Country&lt;/span&gt;&lt;/div&gt;&lt;/div&gt;" style="shape=rect;shadow=0;strokeWidth=1;fillColor=#FFFFFF;strokeColor=#000000;opacity=100.0;html=1;nl2Br=0;verticalAlign=top;align=center;spacingLeft=0.0;spacingRight=0;spacingTop=-5.0;spacingBottom=2;whiteSpace=wrap;gliffyId=21;" parent="7" vertex="1">
          <mxGeometry width="110" height="18" as="geometry" />
        </mxCell>
        <mxCell id="9" value="&lt;div style=&#39;width: 107.0px;height:auto;word-break: break-word;&#39;&gt;&lt;div align=&quot;center&quot;&gt;&lt;span style=&quot;text-decoration:none;font-family:Arial;font-weight:normal;font-size:12px; line-height: normal;&quot;&gt;Country_ID&lt;/span&gt;&lt;/div&gt;&lt;div align=&quot;center&quot;&gt;&lt;span style=&quot;text-decoration:none;font-family:Arial;font-weight:normal;font-size:12px; line-height: normal;&quot;&gt;Country_Name&lt;/span&gt;&lt;/div&gt;&lt;/div&gt;" style="shape=rect;shadow=0;strokeWidth=1;fillColor=#FFFFFF;strokeColor=#000000;opacity=100.0;html=1;nl2Br=0;verticalAlign=top;align=center;spacingLeft=0.0;spacingRight=0;spacingTop=-5.0;spacingBottom=2;whiteSpace=wrap;gliffyId=23;" parent="7" vertex="1">
          <mxGeometry y="18" width="110" height="72" as="geometry" />
        </mxCell>
        <mxCell id="10" style="shape=rect;shadow=0;strokeWidth=1;fillColor=#FFFFFF;strokeColor=#000000;opacity=100.0;gliffyId=25;" parent="2" vertex="1">
          <mxGeometry x="660" y="140" width="130" height="90" as="geometry" />
        </mxCell>
        <mxCell id="11" value="&lt;div style=&#39;width: 127.0px;height:auto;word-break: break-word;&#39;&gt;&lt;div align=&quot;center&quot;&gt;&lt;span style=&quot;font-family:Arial;font-size:12px; line-height: 0;&quot;&gt;&lt;span style=&quot;font-weight:bold; line-height: normal;&quot;&gt;Dim : E&lt;/span&gt;&lt;span style=&quot; line-height: 0;&quot;&gt;&lt;span style=&quot;font-weight:bold; line-height: normal;&quot;&gt;vent&lt;/span&gt;&lt;br /&gt;&lt;/span&gt;&lt;/span&gt;&lt;/div&gt;&lt;/div&gt;" style="shape=rect;shadow=0;strokeWidth=1;fillColor=#FFFFFF;strokeColor=#000000;opacity=100.0;html=1;nl2Br=0;verticalAlign=top;align=center;spacingLeft=0.0;spacingRight=0;spacingTop=-5.0;spacingBottom=2;whiteSpace=wrap;gliffyId=26;" parent="10" vertex="1">
          <mxGeometry width="130" height="18" as="geometry" />
        </mxCell>
        <mxCell id="12" value="&lt;div style=&#39;width: 127.0px;height:auto;word-break: break-word;&#39;&gt;&lt;div align=&quot;center&quot;&gt;&lt;span style=&quot;text-decoration:none;font-family:Arial;font-weight:normal;font-size:12px; line-height: normal;&quot;&gt;Event_ID&lt;br /&gt;&lt;/span&gt;&lt;/div&gt;&lt;div align=&quot;center&quot;&gt;&lt;span style=&quot;text-decoration:none;font-family:Arial;font-weight:normal;font-size:12px; line-height: normal;&quot;&gt;Event_Name&lt;/span&gt;&lt;/div&gt;&lt;div align=&quot;center&quot;&gt;&lt;span style=&quot;text-decoration:none;font-family:Arial;font-weight:normal;font-size:12px; line-height: normal;&quot;&gt;Event_Date&lt;/span&gt;&lt;/div&gt;&lt;/div&gt;" style="shape=rect;shadow=0;strokeWidth=1;fillColor=#FFFFFF;strokeColor=#000000;opacity=100.0;html=1;nl2Br=0;verticalAlign=top;align=center;spacingLeft=0.0;spacingRight=0;spacingTop=-5.0;spacingBottom=2;whiteSpace=wrap;gliffyId=28;" parent="10" vertex="1">
          <mxGeometry y="18" width="130" height="72" as="geometry" />
        </mxCell>
        <mxCell id="13" style="shape=rect;shadow=0;strokeWidth=1;fillColor=#FFFFFF;strokeColor=#000000;opacity=100.0;gliffyId=136;" parent="2" vertex="1">
          <mxGeometry x="460" y="485" width="120" height="64" as="geometry" />
        </mxCell>
        <mxCell id="14" value="&lt;div style=&#39;width: 117.0px;height:auto;word-break: break-word;&#39;&gt;&lt;div align=&quot;center&quot;&gt;&lt;span style=&quot;text-decoration:none;font-family:Arial;font-weight:bold;font-size:12px; line-height: normal;&quot;&gt;Dim : Category&lt;/span&gt;&lt;/div&gt;&lt;/div&gt;" style="shape=rect;shadow=0;strokeWidth=1;fillColor=#FFFFFF;strokeColor=#000000;opacity=100.0;html=1;nl2Br=0;verticalAlign=top;align=center;spacingLeft=0.0;spacingRight=0;spacingTop=-5.0;spacingBottom=2;whiteSpace=wrap;gliffyId=137;" parent="13" vertex="1">
          <mxGeometry width="120" height="18" as="geometry" />
        </mxCell>
        <mxCell id="15" value="&lt;div style=&#39;width: 117.0px;height:auto;word-break: break-word;&#39;&gt;&lt;div align=&quot;center&quot;&gt;&lt;span style=&quot;text-decoration:none;font-family:Arial;font-weight:normal;font-size:12px; line-height: normal;&quot;&gt;Category_ID&lt;/span&gt;&lt;/div&gt;&lt;div align=&quot;center&quot;&gt;&lt;/div&gt;&lt;div align=&quot;center&quot;&gt;&lt;span style=&quot;text-decoration:none;font-family:Arial;font-weight:normal;font-size:12px; line-height: normal;&quot;&gt;Category_Name&lt;/span&gt;&lt;/div&gt;&lt;/div&gt;" style="shape=rect;shadow=0;strokeWidth=1;fillColor=#FFFFFF;strokeColor=#000000;opacity=100.0;html=1;nl2Br=0;verticalAlign=top;align=center;spacingLeft=0.0;spacingRight=0;spacingTop=-5.0;spacingBottom=2;whiteSpace=wrap;gliffyId=139;" parent="13" vertex="1">
          <mxGeometry y="18" width="120" height="46" as="geometry" />
        </mxCell>
        <mxCell id="16" style="shape=rect;shadow=0;strokeWidth=1;fillColor=#FFFFFF;strokeColor=#000000;opacity=100.0;gliffyId=30;" parent="2" vertex="1">
          <mxGeometry x="460" y="383" width="120" height="65" as="geometry" />
        </mxCell>
        <mxCell id="17" value="&lt;div style=&#39;width: 117.0px;height:auto;word-break: break-word;&#39;&gt;&lt;div align=&quot;center&quot;&gt;&lt;span style=&quot;text-decoration:none;font-family:Arial;font-weight:bold;font-size:12px; line-height: normal;&quot;&gt;Dim : Status&lt;/span&gt;&lt;/div&gt;&lt;/div&gt;" style="shape=rect;shadow=0;strokeWidth=1;fillColor=#FFFFFF;strokeColor=#000000;opacity=100.0;html=1;nl2Br=0;verticalAlign=top;align=center;spacingLeft=0.0;spacingRight=0;spacingTop=-5.0;spacingBottom=2;whiteSpace=wrap;gliffyId=31;" parent="16" vertex="1">
          <mxGeometry width="120" height="18" as="geometry" />
        </mxCell>
        <mxCell id="18" value="&lt;div style=&#39;width: 117.0px;height:auto;word-break: break-word;&#39;&gt;&lt;div align=&quot;center&quot;&gt;&lt;span style=&quot;text-decoration:none;font-family:Arial;font-weight:normal;font-size:12px; line-height: normal;&quot;&gt;Status_ID&lt;/span&gt;&lt;/div&gt;&lt;div align=&quot;center&quot;&gt;&lt;span style=&quot;text-decoration:none;font-family:Arial;font-weight:normal;font-size:12px; line-height: normal;&quot;&gt;Status_Name&lt;/span&gt;&lt;/div&gt;&lt;div align=&quot;center&quot;&gt;&lt;span style=&quot; line-height: normal;&quot;&gt;Category_ID&lt;/span&gt;&lt;/div&gt;&lt;/div&gt;" style="shape=rect;shadow=0;strokeWidth=1;fillColor=#FFFFFF;strokeColor=#000000;opacity=100.0;html=1;nl2Br=0;verticalAlign=top;align=center;spacingLeft=0.0;spacingRight=0;spacingTop=-5.0;spacingBottom=2;whiteSpace=wrap;gliffyId=33;" parent="16" vertex="1">
          <mxGeometry y="18" width="120" height="47" as="geometry" />
        </mxCell>
        <mxCell id="19" value="&lt;div style=&#39;width: 162.14285px;height:auto;word-break: break-word;&#39;&gt;&lt;div align=&quot;center&quot;&gt;&lt;span style=&quot;text-decoration:none;font-family:Arial;font-size:12px; line-height: 0;&quot;&gt;&lt;span style=&quot;text-decoration:none; line-height: normal;&quot;&gt;Status : Civils Or Military&lt;br /&gt;&lt;/span&gt;&lt;/span&gt;&lt;/div&gt;&lt;/div&gt;" style="shape=note;size=10;shadow=0;strokeWidth=1;fillColor=#d9ead3;strokeColor=#000000;opacity=100.0;html=1;nl2Br=0;verticalAlign=middle;align=center;spacingLeft=2.4285715;spacingRight=0;whiteSpace=wrap;gliffyId=35;" parent="2" vertex="1">
          <mxGeometry x="250" y="390" width="170" height="44" as="geometry" />
        </mxCell>
        <mxCell id="20" value="&lt;div style=&#39;width: 133.0px;height:auto;word-break: break-word;&#39;&gt;&lt;div align=&quot;center&quot;&gt;&lt;span style=&quot;text-decoration:none;font-family:Arial;font-size:12px; line-height: 0;&quot;&gt;&lt;span style=&quot;text-decoration:none; line-height: normal;&quot;&gt;Category: Kids ,Woman,Man&lt;/span&gt;&lt;/span&gt;&lt;/div&gt;&lt;/div&gt;" style="shape=note;size=10;shadow=0;strokeWidth=1;fillColor=#d9ead3;strokeColor=#000000;opacity=100.0;html=1;nl2Br=0;verticalAlign=middle;align=center;spacingLeft=2.0;spacingRight=0;whiteSpace=wrap;gliffyId=158;" parent="2" vertex="1">
          <mxGeometry x="280" y="530" width="140" height="50" as="geometry" />
        </mxCell>
        <mxCell id="21" style="shape=filledEdge;strokeWidth=2;strokeColor=#000000;fillColor=none;startArrow=none;startFill=0;startSize=6;endArrow=none;endFill=0;endSize=6;rounded=1;gliffyId=43;edgeStyle=orthogonalEdgeStyle;" parent="2" source="7" target="3" edge="1">
          <mxGeometry width="117" height="40" relative="1" as="geometry">
            <Array as="points">
              <mxPoint x="325" y="230" />
              <mxPoint x="325" y="268" />
              <mxPoint x="440" y="268" />
            </Array>
          </mxGeometry>
        </mxCell>
        <mxCell id="22" style="shape=filledEdge;strokeWidth=2;strokeColor=#000000;fillColor=none;startArrow=none;startFill=0;startSize=6;endArrow=none;endFill=0;endSize=6;rounded=1;gliffyId=45;edgeStyle=orthogonalEdgeStyle;" parent="2" source="10" target="3" edge="1">
          <mxGeometry width="124" height="34" relative="1" as="geometry">
            <Array as="points">
              <mxPoint x="725" y="230" />
              <mxPoint x="725" y="260" />
              <mxPoint x="600" y="260" />
            </Array>
          </mxGeometry>
        </mxCell>
        <mxCell id="23" style="shape=filledEdge;strokeWidth=2;strokeColor=#000000;fillColor=none;startArrow=none;startFill=0;startSize=6;endArrow=none;endFill=0;endSize=6;rounded=1;gliffyId=47;edgeStyle=orthogonalEdgeStyle;" parent="2" source="16" target="6" edge="1">
          <mxGeometry width="2" height="46" relative="1" as="geometry">
            <Array as="points">
              <mxPoint x="520" y="383" />
              <mxPoint x="520" y="367" />
              <mxPoint x="520" y="351" />
              <mxPoint x="520" y="335" />
            </Array>
          </mxGeometry>
        </mxCell>
        <mxCell id="24" style="shape=rect;shadow=0;strokeWidth=1;fillColor=#e2e2e2;strokeColor=#000000;opacity=100.0;gliffyId=49;" parent="2" vertex="1">
          <mxGeometry x="990" y="185" width="190" height="150" as="geometry" />
        </mxCell>
        <mxCell id="25" value="&lt;div style=&#39;width: 187.0px;height:auto;word-break: break-word;&#39;&gt;&lt;div align=&quot;center&quot;&gt;&lt;span style=&quot;font-family:Arial;font-weight:bold;font-size:12px; line-height: normal;&quot;&gt;Fact : PalestinianExodus&lt;span style=&quot;text-decoration:none; line-height: normal;&quot;&gt;&lt;br /&gt;&lt;/span&gt;&lt;/span&gt;&lt;/div&gt;&lt;/div&gt;" style="shape=rect;shadow=0;strokeWidth=1;fillColor=#e2e2e2;strokeColor=#000000;opacity=100.0;html=1;nl2Br=0;verticalAlign=top;align=center;spacingLeft=0.0;spacingRight=0;spacingTop=-5.0;spacingBottom=2;whiteSpace=wrap;gliffyId=50;" parent="24" vertex="1">
          <mxGeometry width="190" height="18" as="geometry" />
        </mxCell>
        <mxCell id="26" value="&lt;div style=&#39;width: 187.0px;height:auto;word-break: break-word;&#39;&gt;&lt;div align=&quot;center&quot;&gt;&lt;span style=&quot; line-height: normal;&quot;&gt;Country_ID&lt;/span&gt;&lt;/div&gt;&lt;div align=&quot;center&quot;&gt;&lt;span style=&quot;text-decoration:none; line-height: normal;&quot;&gt;&amp;nbsp;Year_ID&lt;/span&gt;&lt;/div&gt;&lt;div align=&quot;center&quot;&gt;&lt;span style=&quot;text-decoration:none; line-height: normal;&quot;&gt;Period_ID&lt;/span&gt;&lt;/div&gt;&lt;div align=&quot;center&quot;&gt;&lt;span style=&quot;text-decoration:none; line-height: normal;&quot;&gt;Category_ID&lt;/span&gt;&lt;/div&gt;&lt;div align=&quot;center&quot;&gt;&lt;span style=&quot;text-decoration:none; line-height: normal;&quot;&gt;&amp;nbsp;&lt;/span&gt;&lt;/div&gt;&lt;div align=&quot;center&quot;&gt;&lt;span style=&quot;text-decoration:none; line-height: normal;&quot;&gt;&amp;nbsp;&lt;/span&gt;&lt;/div&gt;&lt;/div&gt;" style="shape=rect;shadow=0;strokeWidth=1;fillColor=#e2e2e2;strokeColor=#000000;opacity=100.0;html=1;nl2Br=0;verticalAlign=top;align=center;spacingLeft=0.0;spacingRight=0;spacingTop=-5.0;spacingBottom=2;whiteSpace=wrap;gliffyId=52;" parent="24" vertex="1">
          <mxGeometry y="18" width="190" height="94" as="geometry" />
        </mxCell>
        <mxCell id="27" value="&lt;div style=&#39;width: 187.0px;height:auto;word-break: break-word;&#39;&gt;&lt;div align=&quot;center&quot;&gt;&lt;span style=&quot; line-height: normal;&quot;&gt;#NumberOfPalestinianRefugees&lt;/span&gt;&lt;/div&gt;&lt;/div&gt;" style="shape=rect;shadow=0;strokeWidth=1;fillColor=#e2e2e2;strokeColor=#000000;opacity=100.0;html=1;nl2Br=0;verticalAlign=top;align=center;spacingLeft=0.0;spacingRight=0;spacingTop=-5.0;spacingBottom=2;whiteSpace=wrap;gliffyId=54;" parent="24" vertex="1">
          <mxGeometry y="112" width="190" height="38" as="geometry" />
        </mxCell>
        <mxCell id="28" style="shape=rect;shadow=0;strokeWidth=1;fillColor=#FFFFFF;strokeColor=#000000;opacity=100.0;gliffyId=143;" parent="2" vertex="1">
          <mxGeometry x="825" y="30" width="130" height="90" as="geometry" />
        </mxCell>
        <mxCell id="29" value="&lt;div style=&#39;width: 127.0px;height:auto;word-break: break-word;&#39;&gt;&lt;div align=&quot;center&quot;&gt;&lt;span style=&quot;font-family:Arial;font-size:12px; line-height: 0;&quot;&gt;&lt;span style=&quot;font-weight:bold; line-height: normal;&quot;&gt;Dim :&lt;/span&gt;&lt;span style=&quot; line-height: 0;&quot;&gt;&lt;span style=&quot;font-weight:bold; line-height: normal;&quot;&gt;Camp&lt;/span&gt;&lt;br /&gt;&lt;/span&gt;&lt;/span&gt;&lt;/div&gt;&lt;/div&gt;" style="shape=rect;shadow=0;strokeWidth=1;fillColor=#FFFFFF;strokeColor=#000000;opacity=100.0;html=1;nl2Br=0;verticalAlign=top;align=center;spacingLeft=0.0;spacingRight=0;spacingTop=-5.0;spacingBottom=2;whiteSpace=wrap;gliffyId=144;" parent="28" vertex="1">
          <mxGeometry width="130" height="18" as="geometry" />
        </mxCell>
        <mxCell id="30" value="&lt;div style=&#39;width: 127.0px;height:auto;word-break: break-word;&#39;&gt;&lt;div align=&quot;center&quot;&gt;&lt;span style=&quot;font-family:Arial;font-size:12px; line-height: normal;&quot;&gt;Camp_ID&lt;span style=&quot;text-decoration:none; line-height: normal;&quot;&gt;&lt;br /&gt;&lt;/span&gt;&lt;/span&gt;&lt;/div&gt;&lt;div align=&quot;center&quot;&gt;&lt;span style=&quot;font-family:Arial;font-size:12px; line-height: normal;&quot;&gt;Camp_Name&lt;/span&gt;&lt;/div&gt;&lt;div align=&quot;center&quot;&gt;&lt;span style=&quot;text-decoration:none;font-family:Arial;font-size:12px; line-height: normal;&quot;&gt;&amp;nbsp;&lt;/span&gt;&lt;/div&gt;&lt;/div&gt;" style="shape=rect;shadow=0;strokeWidth=1;fillColor=#FFFFFF;strokeColor=#000000;opacity=100.0;html=1;nl2Br=0;verticalAlign=top;align=center;spacingLeft=0.0;spacingRight=0;spacingTop=-5.0;spacingBottom=2;whiteSpace=wrap;gliffyId=146;" parent="28" vertex="1">
          <mxGeometry y="18" width="130" height="72" as="geometry" />
        </mxCell>
        <mxCell id="31" style="shape=rect;shadow=0;strokeWidth=1;fillColor=#FFFFFF;strokeColor=#000000;opacity=100.0;gliffyId=56;" parent="2" vertex="1">
          <mxGeometry x="825" y="140" width="130" height="90" as="geometry" />
        </mxCell>
        <mxCell id="32" value="&lt;div style=&#39;width: 127.0px;height:auto;word-break: break-word;&#39;&gt;&lt;div align=&quot;center&quot;&gt;&lt;span style=&quot;font-family:Arial;font-size:12px; line-height: 0;&quot;&gt;&lt;span style=&quot;font-weight:bold; line-height: normal;&quot;&gt;Dim : C&lt;/span&gt;&lt;span style=&quot; line-height: 0;&quot;&gt;&lt;span style=&quot;font-weight:bold; line-height: normal;&quot;&gt;ountry&lt;/span&gt;&lt;br /&gt;&lt;/span&gt;&lt;/span&gt;&lt;/div&gt;&lt;/div&gt;" style="shape=rect;shadow=0;strokeWidth=1;fillColor=#FFFFFF;strokeColor=#000000;opacity=100.0;html=1;nl2Br=0;verticalAlign=top;align=center;spacingLeft=0.0;spacingRight=0;spacingTop=-5.0;spacingBottom=2;whiteSpace=wrap;gliffyId=57;" parent="31" vertex="1">
          <mxGeometry width="130" height="18" as="geometry" />
        </mxCell>
        <mxCell id="33" value="&lt;div style=&#39;width: 127.0px;height:auto;word-break: break-word;&#39;&gt;&lt;div align=&quot;center&quot;&gt;&lt;span style=&quot;font-family:Arial;font-size:12px; line-height: normal;&quot;&gt;Country_ID&lt;span style=&quot;text-decoration:none; line-height: normal;&quot;&gt;&lt;br /&gt;&lt;/span&gt;&lt;/span&gt;&lt;/div&gt;&lt;div align=&quot;center&quot;&gt;&lt;span style=&quot;font-family:Arial;font-size:12px; line-height: normal;&quot;&gt;Country_Name&lt;/span&gt;&lt;/div&gt;&lt;div align=&quot;center&quot;&gt;&lt;span style=&quot;text-decoration:none;font-family:Arial;font-size:12px; line-height: normal;&quot;&gt;&amp;nbsp;Camp_ID&lt;/span&gt;&lt;/div&gt;&lt;/div&gt;" style="shape=rect;shadow=0;strokeWidth=1;fillColor=#FFFFFF;strokeColor=#000000;opacity=100.0;html=1;nl2Br=0;verticalAlign=top;align=center;spacingLeft=0.0;spacingRight=0;spacingTop=-5.0;spacingBottom=2;whiteSpace=wrap;gliffyId=59;" parent="31" vertex="1">
          <mxGeometry y="18" width="130" height="72" as="geometry" />
        </mxCell>
        <mxCell id="34" style="shape=rect;shadow=0;strokeWidth=1;fillColor=#FFFFFF;strokeColor=#000000;opacity=100.0;gliffyId=61;" parent="2" vertex="1">
          <mxGeometry x="1310" y="140" width="120" height="90" as="geometry" />
        </mxCell>
        <mxCell id="35" value="&lt;div style=&#39;width: 117.0px;height:auto;word-break: break-word;&#39;&gt;&lt;div align=&quot;center&quot;&gt;&lt;span style=&quot;text-decoration:none;font-family:Arial;font-weight:bold;font-size:12px; line-height: normal;&quot;&gt;Dim : Year&lt;/span&gt;&lt;/div&gt;&lt;/div&gt;" style="shape=rect;shadow=0;strokeWidth=1;fillColor=#FFFFFF;strokeColor=#000000;opacity=100.0;html=1;nl2Br=0;verticalAlign=top;align=center;spacingLeft=0.0;spacingRight=0;spacingTop=-5.0;spacingBottom=2;whiteSpace=wrap;gliffyId=62;" parent="34" vertex="1">
          <mxGeometry width="120" height="18" as="geometry" />
        </mxCell>
        <mxCell id="36" value="&lt;div style=&#39;width: 117.0px;height:auto;word-break: break-word;&#39;&gt;&lt;div align=&quot;center&quot;&gt;&lt;span style=&quot;font-family:Arial;font-size:12px; line-height: normal;&quot;&gt;Year_ID&lt;span style=&quot;text-decoration:none; line-height: normal;&quot;&gt;&lt;br /&gt;&lt;/span&gt;&lt;/span&gt;&lt;/div&gt;&lt;div align=&quot;center&quot;&gt;&lt;span style=&quot;font-family:Arial;font-size:12px; line-height: normal;&quot;&gt;Year&lt;/span&gt;&lt;/div&gt;&lt;/div&gt;" style="shape=rect;shadow=0;strokeWidth=1;fillColor=#FFFFFF;strokeColor=#000000;opacity=100.0;html=1;nl2Br=0;verticalAlign=top;align=center;spacingLeft=0.0;spacingRight=0;spacingTop=-5.0;spacingBottom=2;whiteSpace=wrap;gliffyId=64;" parent="34" vertex="1">
          <mxGeometry y="18" width="120" height="72" as="geometry" />
        </mxCell>
        <mxCell id="37" style="shape=rect;shadow=0;strokeWidth=1;fillColor=#FFFFFF;strokeColor=#000000;opacity=100.0;gliffyId=66;" parent="2" vertex="1">
          <mxGeometry x="1220" y="383" width="120" height="64" as="geometry" />
        </mxCell>
        <mxCell id="38" value="&lt;div style=&#39;width: 117.0px;height:auto;word-break: break-word;&#39;&gt;&lt;div align=&quot;center&quot;&gt;&lt;span style=&quot;text-decoration:none;font-family:Arial;font-weight:bold;font-size:12px; line-height: normal;&quot;&gt;Dim : Period&lt;/span&gt;&lt;/div&gt;&lt;/div&gt;" style="shape=rect;shadow=0;strokeWidth=1;fillColor=#FFFFFF;strokeColor=#000000;opacity=100.0;html=1;nl2Br=0;verticalAlign=top;align=center;spacingLeft=0.0;spacingRight=0;spacingTop=-5.0;spacingBottom=2;whiteSpace=wrap;gliffyId=67;" parent="37" vertex="1">
          <mxGeometry width="120" height="18" as="geometry" />
        </mxCell>
        <mxCell id="39" value="&lt;div style=&#39;width: 117.0px;height:auto;word-break: break-word;&#39;&gt;&lt;div align=&quot;center&quot;&gt;&lt;span style=&quot;text-decoration:none;font-family:Arial;font-weight:normal;font-size:12px; line-height: normal;&quot;&gt;Period_ID&lt;/span&gt;&lt;/div&gt;&lt;div align=&quot;center&quot;&gt;&lt;span style=&quot;text-decoration:none;font-family:Arial;font-weight:normal;font-size:12px; line-height: normal;&quot;&gt;Period_Name&lt;/span&gt;&lt;/div&gt;&lt;/div&gt;" style="shape=rect;shadow=0;strokeWidth=1;fillColor=#FFFFFF;strokeColor=#000000;opacity=100.0;html=1;nl2Br=0;verticalAlign=top;align=center;spacingLeft=0.0;spacingRight=0;spacingTop=-5.0;spacingBottom=2;whiteSpace=wrap;gliffyId=69;" parent="37" vertex="1">
          <mxGeometry y="18" width="120" height="46" as="geometry" />
        </mxCell>
        <mxCell id="40" style="shape=filledEdge;strokeWidth=2;strokeColor=#000000;fillColor=none;startArrow=none;startFill=0;startSize=6;endArrow=none;endFill=0;endSize=6;rounded=1;gliffyId=78;edgeStyle=orthogonalEdgeStyle;" parent="2" source="24" target="34" edge="1">
          <mxGeometry width="108" height="37" relative="1" as="geometry">
            <Array as="points">
              <mxPoint x="1180" y="282" />
              <mxPoint x="1358" y="282" />
              <mxPoint x="1358" y="230" />
            </Array>
          </mxGeometry>
        </mxCell>
        <mxCell id="41" style="shape=filledEdge;strokeWidth=2;strokeColor=#000000;fillColor=none;startArrow=none;startFill=0;startSize=6;endArrow=none;endFill=0;endSize=6;rounded=1;gliffyId=79;edgeStyle=orthogonalEdgeStyle;" parent="2" source="31" target="24" edge="1">
          <mxGeometry width="118" height="31" relative="1" as="geometry">
            <Array as="points">
              <mxPoint x="890" y="230" />
              <mxPoint x="890" y="281" />
              <mxPoint x="990" y="281" />
            </Array>
          </mxGeometry>
        </mxCell>
        <mxCell id="42" style="shape=filledEdge;strokeWidth=2;strokeColor=#000000;fillColor=none;startArrow=none;startFill=0;startSize=6;endArrow=none;endFill=0;endSize=6;rounded=1;gliffyId=80;edgeStyle=orthogonalEdgeStyle;" parent="2" source="37" target="24" edge="1">
          <mxGeometry width="112" height="47" relative="1" as="geometry">
            <Array as="points">
              <mxPoint x="1280" y="383" />
              <mxPoint x="1280" y="299" />
              <mxPoint x="1180" y="299" />
            </Array>
          </mxGeometry>
        </mxCell>
        <mxCell id="43" style="shape=filledEdge;strokeWidth=2;strokeColor=#000000;fillColor=none;startArrow=none;startFill=0;startSize=6;endArrow=none;endFill=0;endSize=6;rounded=1;gliffyId=81;edgeStyle=orthogonalEdgeStyle;" parent="2" target="24" edge="1">
          <mxGeometry width="110" height="52" relative="1" as="geometry">
            <mxPoint x="580" y="510" as="sourcePoint" />
            <Array as="points">
              <mxPoint x="785" y="510" />
              <mxPoint x="785" y="298" />
              <mxPoint x="990" y="298" />
            </Array>
          </mxGeometry>
        </mxCell>
        <mxCell id="44" style="shape=rect;shadow=0;strokeWidth=1;fillColor=#e2e2e2;strokeColor=#000000;opacity=100.0;gliffyId=82;" parent="2" vertex="1">
          <mxGeometry x="990" y="485" width="190" height="170" as="geometry" />
        </mxCell>
        <mxCell id="45" value="&lt;div style=&#39;width: 187.0px;height:auto;word-break: break-word;&#39;&gt;&lt;div align=&quot;center&quot;&gt;&lt;span style=&quot;font-family:Arial;font-weight:bold;font-size:12px; line-height: normal;&quot;&gt;Fact : IsraeliSettlements&lt;span style=&quot;text-decoration:none; line-height: normal;&quot;&gt;&lt;br /&gt;&lt;/span&gt;&lt;/span&gt;&lt;/div&gt;&lt;/div&gt;" style="shape=rect;shadow=0;strokeWidth=1;fillColor=#e2e2e2;strokeColor=#000000;opacity=100.0;html=1;nl2Br=0;verticalAlign=top;align=center;spacingLeft=0.0;spacingRight=0;spacingTop=-5.0;spacingBottom=2;whiteSpace=wrap;gliffyId=83;" parent="44" vertex="1">
          <mxGeometry width="190" height="18" as="geometry" />
        </mxCell>
        <mxCell id="46" value="&lt;div style=&#39;width: 187.0px;height:auto;word-break: break-word;&#39;&gt;&lt;div align=&quot;center&quot;&gt;&lt;span style=&quot;text-decoration:none;font-family:Arial;font-weight:normal;font-size:12px; line-height: normal;&quot;&gt;Colony_ID&lt;/span&gt;&lt;/div&gt;&lt;div align=&quot;center&quot;&gt;&lt;span style=&quot;text-decoration:none;font-family:Arial;font-weight:normal;font-size:12px; line-height: normal;&quot;&gt;Year_ID&lt;/span&gt;&lt;/div&gt;&lt;div align=&quot;center&quot;&gt;&lt;span style=&quot;text-decoration:none;font-family:Arial;font-weight:normal;font-size:12px; line-height: normal;&quot;&gt;Period_ID&lt;/span&gt;&lt;/div&gt;&lt;div align=&quot;center&quot;&gt;&lt;span style=&quot;text-decoration:none;font-family:Arial;font-weight:normal;font-size:12px; line-height: normal;&quot;&gt;Category_ID&lt;/span&gt;&lt;/div&gt;&lt;div align=&quot;center&quot;&gt;&lt;span style=&quot;text-decoration:none;font-family:Arial;font-weight:normal;font-size:12px; line-height: normal;&quot;&gt;&amp;nbsp;&lt;/span&gt;&lt;/div&gt;&lt;div align=&quot;center&quot;&gt;&lt;span style=&quot;text-decoration:none;font-family:Arial;font-weight:normal;font-size:12px; line-height: normal;&quot;&gt;&amp;nbsp;&lt;/span&gt;&lt;/div&gt;&lt;div align=&quot;center&quot;&gt;&lt;span style=&quot;text-decoration:none;font-family:Arial;font-weight:normal;font-size:12px; line-height: normal;&quot;&gt;&amp;nbsp;&lt;/span&gt;&lt;/div&gt;&lt;/div&gt;" style="shape=rect;shadow=0;strokeWidth=1;fillColor=#e2e2e2;strokeColor=#000000;opacity=100.0;html=1;nl2Br=0;verticalAlign=top;align=center;spacingLeft=0.0;spacingRight=0;spacingTop=-5.0;spacingBottom=2;whiteSpace=wrap;gliffyId=85;" parent="44" vertex="1">
          <mxGeometry y="18" width="190" height="102" as="geometry" />
        </mxCell>
        <mxCell id="47" value="&lt;div style=&#39;width: 187.0px;height:auto;word-break: break-word;&#39;&gt;&lt;div align=&quot;center&quot;&gt;&lt;span style=&quot; line-height: normal;&quot;&gt;#NumberOfIsraeliSettlements&lt;/span&gt;&lt;/div&gt;&lt;div align=&quot;center&quot;&gt;&lt;span style=&quot; line-height: normal;&quot;&gt;#NumberOfInhabitants&lt;/span&gt;&lt;/div&gt;&lt;/div&gt;" style="shape=rect;shadow=0;strokeWidth=1;fillColor=#e2e2e2;strokeColor=#000000;opacity=100.0;html=1;nl2Br=0;verticalAlign=top;align=center;spacingLeft=0.0;spacingRight=0;spacingTop=-5.0;spacingBottom=2;whiteSpace=wrap;gliffyId=87;" parent="44" vertex="1">
          <mxGeometry y="120" width="190" height="50" as="geometry" />
        </mxCell>
        <mxCell id="48" style="shape=filledEdge;strokeWidth=2;strokeColor=#000000;fillColor=none;startArrow=none;startFill=0;startSize=6;endArrow=none;endFill=0;endSize=6;rounded=1;gliffyId=89;edgeStyle=orthogonalEdgeStyle;" parent="2" source="13" target="44" edge="1">
          <mxGeometry width="104" height="131" relative="1" as="geometry">
            <Array as="points">
              <mxPoint x="520" y="549" />
              <mxPoint x="520" y="570" />
              <mxPoint x="990" y="570" />
            </Array>
          </mxGeometry>
        </mxCell>
        <mxCell id="49" style="shape=filledEdge;strokeWidth=2;strokeColor=#000000;fillColor=none;startArrow=none;startFill=0;startSize=6;endArrow=none;endFill=0;endSize=6;rounded=1;gliffyId=90;edgeStyle=orthogonalEdgeStyle;" parent="2" target="44" edge="1">
          <mxGeometry width="120" height="133" relative="1" as="geometry">
            <mxPoint x="1275" y="447" as="sourcePoint" />
            <Array as="points">
              <mxPoint x="1275" y="570" />
              <mxPoint x="1180" y="570" />
            </Array>
          </mxGeometry>
        </mxCell>
        <mxCell id="50" style="shape=filledEdge;strokeWidth=2;strokeColor=#000000;fillColor=none;startArrow=none;startFill=0;startSize=6;endArrow=none;endFill=0;endSize=6;rounded=1;gliffyId=93;edgeStyle=orthogonalEdgeStyle;" parent="2" source="34" target="44" edge="1">
          <mxGeometry width="204" height="427" relative="1" as="geometry">
            <Array as="points">
              <mxPoint x="1370" y="230" />
              <mxPoint x="1370" y="695" />
              <mxPoint x="1085" y="695" />
              <mxPoint x="1085" y="655" />
            </Array>
          </mxGeometry>
        </mxCell>
        <mxCell id="51" style="shape=rect;shadow=0;strokeWidth=1;fillColor=#e2e2e2;strokeColor=#000000;opacity=100.0;gliffyId=98;" parent="2" vertex="1">
          <mxGeometry x="1572.5" y="185" width="175" height="152" as="geometry" />
        </mxCell>
        <mxCell id="52" value="&lt;div style=&#39;width: 172.0px;height:auto;word-break: break-word;&#39;&gt;&lt;div align=&quot;center&quot;&gt;&lt;span style=&quot;text-decoration:none;font-family:Arial;font-weight:bold;font-size:12px; line-height: normal;&quot;&gt;Fact : DemographicsOfIsrael&amp;nbsp;&lt;/span&gt;&lt;/div&gt;&lt;/div&gt;" style="shape=rect;shadow=0;strokeWidth=1;fillColor=#e2e2e2;strokeColor=#000000;opacity=100.0;html=1;nl2Br=0;verticalAlign=top;align=center;spacingLeft=0.0;spacingRight=0;spacingTop=-5.0;spacingBottom=2;whiteSpace=wrap;gliffyId=99;" parent="51" vertex="1">
          <mxGeometry width="175" height="18" as="geometry" />
        </mxCell>
        <mxCell id="53" value="&lt;div style=&#39;width: 172.0px;height:auto;word-break: break-word;&#39;&gt;&lt;div align=&quot;center&quot;&gt;&lt;span style=&quot;text-decoration:none;font-family:Arial;font-weight:normal;font-size:12px; line-height: normal;&quot;&gt;Year_ID&lt;/span&gt;&lt;/div&gt;&lt;div align=&quot;center&quot;&gt;&lt;span style=&quot;text-decoration:none;font-family:Arial;font-weight:normal;font-size:12px; line-height: normal;&quot;&gt;Nationality_ID&lt;/span&gt;&lt;/div&gt;&lt;div align=&quot;center&quot;&gt;&lt;span style=&quot;text-decoration:none;font-family:Arial;font-weight:normal;font-size:12px; line-height: normal;&quot;&gt;CountryBirth_ID&lt;/span&gt;&lt;/div&gt;&lt;div align=&quot;center&quot;&gt;&lt;span style=&quot;text-decoration:none;font-family:Arial;font-weight:normal;font-size:12px; line-height: normal;&quot;&gt;&amp;nbsp;&lt;/span&gt;&lt;/div&gt;&lt;div align=&quot;center&quot;&gt;&lt;span style=&quot;text-decoration:none;font-family:Arial;font-weight:normal;font-size:12px; line-height: normal;&quot;&gt;&amp;nbsp;&lt;/span&gt;&lt;/div&gt;&lt;div align=&quot;center&quot;&gt;&lt;span style=&quot;text-decoration:none;font-family:Arial;font-weight:normal;font-size:12px; line-height: normal;&quot;&gt;&amp;nbsp;&lt;/span&gt;&lt;/div&gt;&lt;div align=&quot;center&quot;&gt;&lt;span style=&quot;text-decoration:none;font-family:Arial;font-weight:normal;font-size:12px; line-height: normal;&quot;&gt;&amp;nbsp;&lt;/span&gt;&lt;/div&gt;&lt;/div&gt;" style="shape=rect;shadow=0;strokeWidth=1;fillColor=#e2e2e2;strokeColor=#000000;opacity=100.0;html=1;nl2Br=0;verticalAlign=top;align=center;spacingLeft=0.0;spacingRight=0;spacingTop=-5.0;spacingBottom=2;whiteSpace=wrap;gliffyId=101;" parent="51" vertex="1">
          <mxGeometry y="18" width="175" height="102" as="geometry" />
        </mxCell>
        <mxCell id="54" value="&lt;div style=&#39;width: 172.0px;height:auto;word-break: break-word;&#39;&gt;&lt;div align=&quot;center&quot;&gt;&lt;span style=&quot;text-decoration:none;font-family:Arial;font-weight:normal;font-size:12px; line-height: normal;&quot;&gt;#NumberOfMigrants&lt;/span&gt;&lt;/div&gt;&lt;div align=&quot;center&quot;&gt;&lt;span style=&quot;text-decoration:none;font-family:Arial;font-weight:normal;font-size:12px; line-height: normal;&quot;&gt;#Population&lt;/span&gt;&lt;/div&gt;&lt;/div&gt;" style="shape=rect;shadow=0;strokeWidth=1;fillColor=#e2e2e2;strokeColor=#000000;opacity=100.0;html=1;nl2Br=0;verticalAlign=top;align=center;spacingLeft=0.0;spacingRight=0;spacingTop=-5.0;spacingBottom=2;whiteSpace=wrap;gliffyId=103;" parent="51" vertex="1">
          <mxGeometry y="120" width="175" height="32" as="geometry" />
        </mxCell>
        <mxCell id="55" style="shape=rect;shadow=0;strokeWidth=1;fillColor=#FFFFFF;strokeColor=#000000;opacity=100.0;gliffyId=109;" parent="2" vertex="1">
          <mxGeometry x="1580" y="415" width="160" height="100" as="geometry" />
        </mxCell>
        <mxCell id="56" value="&lt;div style=&#39;width: 157.0px;height:auto;word-break: break-word;&#39;&gt;&lt;div align=&quot;center&quot;&gt;&lt;span style=&quot;font-family:Arial;font-weight:bold;font-size:12px; line-height: normal;&quot;&gt;Dim : N&lt;span style=&quot; line-height: normal;&quot;&gt;ationality&lt;br /&gt;&lt;/span&gt;&lt;/span&gt;&lt;/div&gt;&lt;/div&gt;" style="shape=rect;shadow=0;strokeWidth=1;fillColor=#FFFFFF;strokeColor=#000000;opacity=100.0;html=1;nl2Br=0;verticalAlign=top;align=center;spacingLeft=0.0;spacingRight=0;spacingTop=-5.0;spacingBottom=2;whiteSpace=wrap;gliffyId=110;" parent="55" vertex="1">
          <mxGeometry width="160" height="18" as="geometry" />
        </mxCell>
        <mxCell id="57" value="&lt;div style=&#39;width: 157.0px;height:auto;word-break: break-word;&#39;&gt;&lt;div align=&quot;center&quot;&gt;&lt;span style=&quot;text-decoration:none;font-family:Arial;font-weight:normal;font-size:12px; line-height: normal;&quot;&gt;Nationality_ID&lt;/span&gt;&lt;/div&gt;&lt;div align=&quot;center&quot;&gt;&lt;span style=&quot;text-decoration:none;font-family:Arial;font-weight:normal;font-size:12px; line-height: normal;&quot;&gt;Nationality_Name&lt;/span&gt;&lt;/div&gt;&lt;/div&gt;" style="shape=rect;shadow=0;strokeWidth=1;fillColor=#FFFFFF;strokeColor=#000000;opacity=100.0;html=1;nl2Br=0;verticalAlign=top;align=center;spacingLeft=0.0;spacingRight=0;spacingTop=-5.0;spacingBottom=2;whiteSpace=wrap;gliffyId=112;" parent="55" vertex="1">
          <mxGeometry y="18" width="160" height="82" as="geometry" />
        </mxCell>
        <mxCell id="58" style="shape=rect;shadow=0;strokeWidth=1;fillColor=#FFFFFF;strokeColor=#000000;opacity=100.0;gliffyId=114;" parent="2" vertex="1">
          <mxGeometry x="1790" y="140" width="160" height="90" as="geometry" />
        </mxCell>
        <mxCell id="59" value="&lt;div style=&#39;width: 157.0px;height:auto;word-break: break-word;&#39;&gt;&lt;div align=&quot;center&quot;&gt;&lt;span style=&quot;font-family:Arial;font-weight:bold;font-size:12px; line-height: normal;&quot;&gt;Dim : C&lt;span style=&quot; line-height: normal;&quot;&gt;ountryBirth&lt;br /&gt;&lt;/span&gt;&lt;/span&gt;&lt;/div&gt;&lt;/div&gt;" style="shape=rect;shadow=0;strokeWidth=1;fillColor=#FFFFFF;strokeColor=#000000;opacity=100.0;html=1;nl2Br=0;verticalAlign=top;align=center;spacingLeft=0.0;spacingRight=0;spacingTop=-5.0;spacingBottom=2;whiteSpace=wrap;gliffyId=115;" parent="58" vertex="1">
          <mxGeometry width="160" height="18" as="geometry" />
        </mxCell>
        <mxCell id="60" value="&lt;div style=&#39;width: 157.0px;height:auto;word-break: break-word;&#39;&gt;&lt;div align=&quot;center&quot;&gt;&lt;span style=&quot;font-family:Arial;font-size:12px; line-height: normal;&quot;&gt;C&lt;span style=&quot; line-height: normal;&quot;&gt;ountryBirth_ID&lt;br /&gt;&lt;/span&gt;&lt;/span&gt;&lt;/div&gt;&lt;div align=&quot;center&quot;&gt;&lt;span style=&quot;font-family:Arial;font-size:12px; line-height: 0;&quot;&gt;&lt;span style=&quot; line-height: normal;&quot;&gt;CountryBirth_Name&lt;/span&gt;&lt;/span&gt;&lt;/div&gt;&lt;/div&gt;" style="shape=rect;shadow=0;strokeWidth=1;fillColor=#FFFFFF;strokeColor=#000000;opacity=100.0;html=1;nl2Br=0;verticalAlign=top;align=center;spacingLeft=0.0;spacingRight=0;spacingTop=-5.0;spacingBottom=2;whiteSpace=wrap;gliffyId=117;" parent="58" vertex="1">
          <mxGeometry y="18" width="160" height="72" as="geometry" />
        </mxCell>
        <mxCell id="61" style="shape=filledEdge;strokeWidth=2;strokeColor=#000000;fillColor=none;startArrow=none;startFill=0;startSize=6;endArrow=none;endFill=0;endSize=6;rounded=1;gliffyId=119;edgeStyle=orthogonalEdgeStyle;" parent="2" source="55" target="51" edge="1">
          <mxGeometry width="124" height="132" relative="1" as="geometry">
            <Array as="points">
              <mxPoint x="1660" y="415" />
              <mxPoint x="1660" y="389" />
              <mxPoint x="1660" y="363" />
              <mxPoint x="1660" y="337" />
            </Array>
          </mxGeometry>
        </mxCell>
        <mxCell id="62" style="shape=filledEdge;strokeWidth=2;strokeColor=#000000;fillColor=none;startArrow=none;startFill=0;startSize=6;endArrow=none;endFill=0;endSize=6;rounded=1;gliffyId=120;edgeStyle=orthogonalEdgeStyle;" parent="2" source="58" target="51" edge="1">
          <mxGeometry width="117.33333587646484" height="133.3333282470703" relative="1" as="geometry">
            <Array as="points">
              <mxPoint x="1870" y="230" />
              <mxPoint x="1870" y="285" />
              <mxPoint x="1747.5" y="285" />
            </Array>
          </mxGeometry>
        </mxCell>
        <mxCell id="63" style="shape=filledEdge;strokeWidth=2;strokeColor=#000000;fillColor=none;startArrow=none;startFill=0;startSize=6;endArrow=none;endFill=0;endSize=6;rounded=1;gliffyId=122;edgeStyle=orthogonalEdgeStyle;" parent="2" source="34" target="51" edge="1">
          <mxGeometry width="314.6666564941406" height="494.6666564941406" relative="1" as="geometry">
            <Array as="points">
              <mxPoint x="1387" y="230" />
              <mxPoint x="1387" y="283" />
              <mxPoint x="1572.5" y="283" />
            </Array>
          </mxGeometry>
        </mxCell>
        <mxCell id="64" value="&lt;div style=&#39;width: 103.85714px;height:auto;word-break: break-word;&#39;&gt;&lt;div align=&quot;center&quot;&gt;&lt;span style=&quot;text-decoration:none;font-family:Arial;font-size:12px; line-height: 0;&quot;&gt;&lt;span style=&quot;text-decoration:none; line-height: normal;&quot;&gt;(Palestine, Israël)&lt;/span&gt;&lt;/span&gt;&lt;/div&gt;&lt;/div&gt;" style="shape=note;size=10;shadow=0;strokeWidth=1;fillColor=#d9ead3;strokeColor=#000000;opacity=100.0;html=1;nl2Br=0;verticalAlign=middle;align=center;spacingLeft=1.5714285;spacingRight=0;whiteSpace=wrap;gliffyId=124;" parent="2" vertex="1">
          <mxGeometry x="130" y="155" width="110" height="30" as="geometry" />
        </mxCell>
        <mxCell id="65" value="&lt;div style=&#39;width: 220.42857px;height:auto;word-break: break-word;&#39;&gt;&lt;div align=&quot;center&quot;&gt;&lt;span style=&quot;text-decoration:none;font-family:Arial;font-size:12px; line-height: 0;&quot;&gt;&lt;span style=&quot;text-decoration:none; line-height: normal;&quot;&gt;massacre de Deir Yassine, première intifada, deuxième Intifada&lt;br /&gt;&lt;/span&gt;&lt;/span&gt;&lt;/div&gt;&lt;/div&gt;" style="shape=note;size=10;shadow=0;strokeWidth=1;fillColor=#d9ead3;strokeColor=#000000;opacity=100.0;html=1;nl2Br=0;verticalAlign=middle;align=center;spacingLeft=3.2857144;spacingRight=0;whiteSpace=wrap;gliffyId=127;" parent="2" vertex="1">
          <mxGeometry x="560" y="85" width="230" height="40" as="geometry" />
        </mxCell>
        <mxCell id="66" value="&lt;div style=&#39;width: 133.0px;height:auto;word-break: break-word;&#39;&gt;&lt;div align=&quot;center&quot;&gt;&lt;span style=&quot;text-decoration:none;font-family:Arial;font-size:12px; line-height: 0;&quot;&gt;&lt;span style=&quot;text-decoration:none; line-height: normal;&quot;&gt;( 1948- , 1967-, 2023- )&lt;/span&gt;&lt;/span&gt;&lt;/div&gt;&lt;/div&gt;" style="shape=note;size=10;shadow=0;strokeWidth=1;fillColor=#d9ead3;strokeColor=#000000;opacity=100.0;html=1;nl2Br=0;verticalAlign=middle;align=center;spacingLeft=2.0;spacingRight=0;whiteSpace=wrap;gliffyId=130;" parent="2" vertex="1">
          <mxGeometry x="1060" y="396" width="140" height="38" as="geometry" />
        </mxCell>
        <mxCell id="67" style="shape=filledEdge;strokeWidth=2;strokeColor=#000000;fillColor=none;startArrow=none;startFill=0;startSize=6;endArrow=none;endFill=0;endSize=6;rounded=1;gliffyId=141;edgeStyle=orthogonalEdgeStyle;" parent="2" source="16" target="13" edge="1">
          <mxGeometry width="10" height="40" relative="1" as="geometry">
            <Array as="points">
              <mxPoint x="520" y="448" />
              <mxPoint x="520" y="460.3333435058594" />
              <mxPoint x="520" y="472.6666564941406" />
              <mxPoint x="520" y="485" />
            </Array>
          </mxGeometry>
        </mxCell>
        <mxCell id="68" style="shape=filledEdge;strokeWidth=2;strokeColor=#000000;fillColor=none;startArrow=none;startFill=0;startSize=6;endArrow=none;endFill=0;endSize=6;rounded=1;gliffyId=149;edgeStyle=orthogonalEdgeStyle;" parent="2" source="28" target="31" edge="1">
          <mxGeometry width="3" height="19" relative="1" as="geometry">
            <Array as="points">
              <mxPoint x="890" y="120" />
              <mxPoint x="890" y="126.66666412353516" />
              <mxPoint x="890" y="133.3333282470703" />
              <mxPoint x="890" y="140" />
            </Array>
          </mxGeometry>
        </mxCell>
        <mxCell id="69" style="shape=rect;shadow=0;strokeWidth=1;fillColor=#FFFFFF;strokeColor=#000000;opacity=100.0;gliffyId=151;" parent="2" vertex="1">
          <mxGeometry x="835" y="383" width="120" height="65" as="geometry" />
        </mxCell>
        <mxCell id="70" value="&lt;div style=&#39;width: 117.0px;height:auto;word-break: break-word;&#39;&gt;&lt;div align=&quot;center&quot;&gt;&lt;span style=&quot;text-decoration:none;font-family:Arial;font-weight:normal;font-size:12px; line-height: 0;&quot;&gt;&lt;span style=&quot;font-weight:bold; line-height: normal;&quot;&gt;Dim : Colony&lt;/span&gt;&lt;br /&gt;&lt;/span&gt;&lt;/div&gt;&lt;/div&gt;" style="shape=rect;shadow=0;strokeWidth=1;fillColor=#FFFFFF;strokeColor=#000000;opacity=100.0;html=1;nl2Br=0;verticalAlign=top;align=center;spacingLeft=0.0;spacingRight=0;spacingTop=-5.0;spacingBottom=2;whiteSpace=wrap;gliffyId=152;" parent="69" vertex="1">
          <mxGeometry width="120" height="18" as="geometry" />
        </mxCell>
        <mxCell id="71" value="&lt;div style=&#39;width: 117.0px;height:auto;word-break: break-word;&#39;&gt;&lt;div align=&quot;center&quot;&gt;&lt;span style=&quot;text-decoration:none;font-family:Arial;font-weight:normal;font-size:12px; line-height: normal;&quot;&gt;Colony_ID&lt;/span&gt;&lt;/div&gt;&lt;div align=&quot;center&quot;&gt;&lt;span style=&quot;text-decoration:none;font-family:Arial;font-weight:normal;font-size:12px; line-height: normal;&quot;&gt;Colony_Name&lt;/span&gt;&lt;/div&gt;&lt;/div&gt;" style="shape=rect;shadow=0;strokeWidth=1;fillColor=#FFFFFF;strokeColor=#000000;opacity=100.0;html=1;nl2Br=0;verticalAlign=top;align=center;spacingLeft=0.0;spacingRight=0;spacingTop=-5.0;spacingBottom=2;whiteSpace=wrap;gliffyId=154;" parent="69" vertex="1">
          <mxGeometry y="18" width="120" height="47" as="geometry" />
        </mxCell>
        <mxCell id="72" style="shape=filledEdge;strokeWidth=2;strokeColor=#000000;fillColor=none;startArrow=none;startFill=0;startSize=6;endArrow=none;endFill=0;endSize=6;rounded=1;gliffyId=156;edgeStyle=orthogonalEdgeStyle;" parent="2" source="69" target="44" edge="1">
          <mxGeometry width="96" height="114" relative="1" as="geometry">
            <Array as="points">
              <mxPoint x="895" y="448" />
              <mxPoint x="895" y="562" />
              <mxPoint x="990" y="562" />
            </Array>
          </mxGeometry>
        </mxCell>
      </root>
    </mxGraphModel>
  </diagram>
</mxfile>
